<?xml version="1.0" encoding="UTF-8" standalone="no"?>
<!DOCTYPE svg PUBLIC "-//W3C//DTD SVG 1.1//EN"
 "http://www.w3.org/Graphics/SVG/1.1/DTD/svg11.dtd">
<!-- Generated by graphviz version 2.40.1 (20161225.0304)
 -->
<!-- Title: %0 Pages: 1 -->
<svg width="331pt" height="260pt"
 viewBox="0.00 0.00 330.85 260.00" xmlns="http://www.w3.org/2000/svg" xmlns:xlink="http://www.w3.org/1999/xlink">
<g id="graph0" class="graph" transform="scale(1 1) rotate(0) translate(4 256)">
<title>%0</title>
<polygon fill="#ffffff" stroke="transparent" points="-4,4 -4,-256 326.8457,-256 326.8457,4 -4,4"/>
<!-- c:\Users\pausa\Documents\Treballant\MIDI_receiver\src\constantsMIDI.sv -->
<g id="node1" class="node">
<title>c:\Users\pausa\Documents\Treballant\MIDI_receiver\src\constantsMIDI.sv</title>
<polygon fill="#d3d3d3" stroke="#069302" points="205.9086,-36 82.2064,-36 82.2064,-32 78.2064,-32 78.2064,-28 82.2064,-28 82.2064,-8 78.2064,-8 78.2064,-4 82.2064,-4 82.2064,0 205.9086,0 205.9086,-36"/>
<polyline fill="none" stroke="#069302" points="82.2064,-32 86.2064,-32 86.2064,-28 82.2064,-28 "/>
<polyline fill="none" stroke="#069302" points="82.2064,-8 86.2064,-8 86.2064,-4 82.2064,-4 "/>
<text text-anchor="middle" x="144.0575" y="-13.8" font-family="Helvetica,sans-Serif" font-size="14.00" fill="#000000">constantsMIDI.sv</text>
</g>
<!-- c:\Users\pausa\Documents\Treballant\MIDI_receiver\src\MIDI_Control.sv -->
<g id="node2" class="node">
<title>c:\Users\pausa\Documents\Treballant\MIDI_receiver\src\MIDI_Control.sv</title>
<polygon fill="#d3d3d3" stroke="#069302" points="175.3918,-108 58.7232,-108 58.7232,-104 54.7232,-104 54.7232,-100 58.7232,-100 58.7232,-80 54.7232,-80 54.7232,-76 58.7232,-76 58.7232,-72 175.3918,-72 175.3918,-108"/>
<polyline fill="none" stroke="#069302" points="58.7232,-104 62.7232,-104 62.7232,-100 58.7232,-100 "/>
<polyline fill="none" stroke="#069302" points="58.7232,-80 62.7232,-80 62.7232,-76 58.7232,-76 "/>
<text text-anchor="middle" x="117.0575" y="-85.8" font-family="Helvetica,sans-Serif" font-size="14.00" fill="#000000">MIDI_Control.sv</text>
</g>
<!-- c:\Users\pausa\Documents\Treballant\MIDI_receiver\src\MIDI_DataPath.sv -->
<g id="node3" class="node">
<title>c:\Users\pausa\Documents\Treballant\MIDI_receiver\src\MIDI_DataPath.sv</title>
<polygon fill="#d3d3d3" stroke="#069302" points="322.6346,-108 193.4804,-108 193.4804,-104 189.4804,-104 189.4804,-100 193.4804,-100 193.4804,-80 189.4804,-80 189.4804,-76 193.4804,-76 193.4804,-72 322.6346,-72 322.6346,-108"/>
<polyline fill="none" stroke="#069302" points="193.4804,-104 197.4804,-104 197.4804,-100 193.4804,-100 "/>
<polyline fill="none" stroke="#069302" points="193.4804,-80 197.4804,-80 197.4804,-76 193.4804,-76 "/>
<text text-anchor="middle" x="258.0575" y="-85.8" font-family="Helvetica,sans-Serif" font-size="14.00" fill="#000000">MIDI_DataPath.sv</text>
</g>
<!-- c:\Users\pausa\Documents\Treballant\MIDI_receiver\src\MIDI_DataPath.sv&#45;&gt;c:\Users\pausa\Documents\Treballant\MIDI_receiver\src\constantsMIDI.sv -->
<g id="edge1" class="edge">
<title>c:\Users\pausa\Documents\Treballant\MIDI_receiver\src\MIDI_DataPath.sv&#45;&gt;c:\Users\pausa\Documents\Treballant\MIDI_receiver\src\constantsMIDI.sv</title>
<path fill="none" stroke="#000000" d="M229.2905,-71.8314C214.8442,-62.7074 197.161,-51.539 181.6535,-41.7449"/>
<polygon fill="#000000" stroke="#000000" points="183.1392,-38.5436 172.8153,-36.1628 179.4012,-44.462 183.1392,-38.5436"/>
</g>
<!-- c:\Users\pausa\Documents\Treballant\MIDI_receiver\src\MIDI_Receiver.sv -->
<g id="node4" class="node">
<title>c:\Users\pausa\Documents\Treballant\MIDI_receiver\src\MIDI_Receiver.sv</title>
<polygon fill="#d3d3d3" stroke="#069302" points="185.5015,-180 58.6135,-180 58.6135,-176 54.6135,-176 54.6135,-172 58.6135,-172 58.6135,-152 54.6135,-152 54.6135,-148 58.6135,-148 58.6135,-144 185.5015,-144 185.5015,-180"/>
<polyline fill="none" stroke="#069302" points="58.6135,-176 62.6135,-176 62.6135,-172 58.6135,-172 "/>
<polyline fill="none" stroke="#069302" points="58.6135,-152 62.6135,-152 62.6135,-148 58.6135,-148 "/>
<text text-anchor="middle" x="122.0575" y="-157.8" font-family="Helvetica,sans-Serif" font-size="14.00" fill="#000000">MIDI_Receiver.sv</text>
</g>
<!-- c:\Users\pausa\Documents\Treballant\MIDI_receiver\src\MIDI_Receiver.sv&#45;&gt;c:\Users\pausa\Documents\Treballant\MIDI_receiver\src\MIDI_Control.sv -->
<g id="edge3" class="edge">
<title>c:\Users\pausa\Documents\Treballant\MIDI_receiver\src\MIDI_Receiver.sv&#45;&gt;c:\Users\pausa\Documents\Treballant\MIDI_receiver\src\MIDI_Control.sv</title>
<path fill="none" stroke="#000000" d="M120.7958,-143.8314C120.261,-136.131 119.6252,-126.9743 119.0309,-118.4166"/>
<polygon fill="#000000" stroke="#000000" points="122.5207,-118.1467 118.3362,-108.4133 115.5375,-118.6317 122.5207,-118.1467"/>
</g>
<!-- c:\Users\pausa\Documents\Treballant\MIDI_receiver\src\MIDI_Receiver.sv&#45;&gt;c:\Users\pausa\Documents\Treballant\MIDI_receiver\src\MIDI_DataPath.sv -->
<g id="edge2" class="edge">
<title>c:\Users\pausa\Documents\Treballant\MIDI_receiver\src\MIDI_Receiver.sv&#45;&gt;c:\Users\pausa\Documents\Treballant\MIDI_receiver\src\MIDI_DataPath.sv</title>
<path fill="none" stroke="#000000" d="M156.376,-143.8314C174.0934,-134.4516 195.892,-122.9112 214.7559,-112.9244"/>
<polygon fill="#000000" stroke="#000000" points="216.5497,-115.935 223.7499,-108.1628 213.2744,-109.7485 216.5497,-115.935"/>
</g>
<!-- c:\Users\pausa\Documents\Treballant\MIDI_receiver\sim\MIDI_Receiver_TB.sv -->
<g id="node5" class="node">
<title>c:\Users\pausa\Documents\Treballant\MIDI_receiver\sim\MIDI_Receiver_TB.sv</title>
<polygon fill="#d3d3d3" stroke="#069302" points="152.1725,-252 -.0575,-252 -.0575,-248 -4.0575,-248 -4.0575,-244 -.0575,-244 -.0575,-224 -4.0575,-224 -4.0575,-220 -.0575,-220 -.0575,-216 152.1725,-216 152.1725,-252"/>
<polyline fill="none" stroke="#069302" points="-.0575,-248 3.9425,-248 3.9425,-244 -.0575,-244 "/>
<polyline fill="none" stroke="#069302" points="-.0575,-224 3.9425,-224 3.9425,-220 -.0575,-220 "/>
<text text-anchor="middle" x="76.0575" y="-229.8" font-family="Helvetica,sans-Serif" font-size="14.00" fill="#000000">MIDI_Receiver_TB.sv</text>
</g>
<!-- c:\Users\pausa\Documents\Treballant\MIDI_receiver\sim\MIDI_Receiver_TB.sv&#45;&gt;c:\Users\pausa\Documents\Treballant\MIDI_receiver\src\constantsMIDI.sv -->
<g id="edge4" class="edge">
<title>c:\Users\pausa\Documents\Treballant\MIDI_receiver\sim\MIDI_Receiver_TB.sv&#45;&gt;c:\Users\pausa\Documents\Treballant\MIDI_receiver\src\constantsMIDI.sv</title>
<path fill="none" stroke="#000000" d="M64.7379,-215.7678C59.1179,-205.6415 52.9281,-192.5789 50.0575,-180 39.3783,-133.2031 26.0125,-113.5432 50.0575,-72 57.5645,-59.0299 69.4954,-48.9041 82.3721,-41.1078"/>
<polygon fill="#000000" stroke="#000000" points="84.3658,-44.0035 91.395,-36.0763 80.9565,-37.8898 84.3658,-44.0035"/>
</g>
<!-- c:\Users\pausa\Documents\Treballant\MIDI_receiver\sim\MIDI_Receiver_TB.sv&#45;&gt;c:\Users\pausa\Documents\Treballant\MIDI_receiver\src\MIDI_Receiver.sv -->
<g id="edge5" class="edge">
<title>c:\Users\pausa\Documents\Treballant\MIDI_receiver\sim\MIDI_Receiver_TB.sv&#45;&gt;c:\Users\pausa\Documents\Treballant\MIDI_receiver\src\MIDI_Receiver.sv</title>
<path fill="none" stroke="#000000" d="M87.6652,-215.8314C92.8553,-207.7079 99.0807,-197.9637 104.8,-189.0118"/>
<polygon fill="#000000" stroke="#000000" points="107.859,-190.7246 110.2935,-180.4133 101.9601,-186.9559 107.859,-190.7246"/>
</g>
</g>
</svg>
