<?xml version="1.0" encoding="UTF-8" standalone="no"?>
<!DOCTYPE svg PUBLIC "-//W3C//DTD SVG 1.1//EN"
 "http://www.w3.org/Graphics/SVG/1.1/DTD/svg11.dtd">
<!-- Generated by graphviz version 2.40.1 (20161225.0304)
 -->
<!-- Title: state transitions Pages: 1 -->
<svg width="350pt" height="844pt"
 viewBox="0.00 0.00 350.00 844.00" xmlns="http://www.w3.org/2000/svg" xmlns:xlink="http://www.w3.org/1999/xlink">
<g id="graph0" class="graph" transform="scale(1 1) rotate(0) translate(4 840)">
<title>state transitions</title>
<polygon fill="#ffffff" stroke="transparent" points="-4,4 -4,-840 346,-840 346,4 -4,4"/>
<g id="clust1" class="cluster state regular">
<title>cluster_state</title>
<path fill="none" stroke="#000000" stroke-width="2" d="M20,-8C20,-8 322,-8 322,-8 328,-8 334,-14 334,-20 334,-20 334,-816 334,-816 334,-822 328,-828 322,-828 322,-828 20,-828 20,-828 14,-828 8,-822 8,-816 8,-816 8,-20 8,-20 8,-14 14,-8 20,-8"/>
<text text-anchor="start" x="157.9944" y="-809.2" font-family="Helvetica,sans-Serif" font-size="12.00" fill="#000000">state</text>
</g>
<!-- state -->
<!-- IDLE -->
<g id="node2" class="node state regular">
<title>IDLE</title>
<polygon fill="#ffffff" fill-opacity="0.003922" stroke="transparent" stroke-width="2" points="212,-790 156,-790 156,-754 212,-754 212,-790"/>
<text text-anchor="start" x="170.6644" y="-768.2" font-family="Helvetica,sans-Serif" font-size="12.00" fill="#000000">IDLE</text>
<path fill="none" stroke="#000000" stroke-width="2" d="M168.3333,-755C168.3333,-755 199.6667,-755 199.6667,-755 205.3333,-755 211,-760.6667 211,-766.3333 211,-766.3333 211,-777.6667 211,-777.6667 211,-783.3333 205.3333,-789 199.6667,-789 199.6667,-789 168.3333,-789 168.3333,-789 162.6667,-789 157,-783.3333 157,-777.6667 157,-777.6667 157,-766.3333 157,-766.3333 157,-760.6667 162.6667,-755 168.3333,-755"/>
</g>
<!-- IDLE&#45;&gt;IDLE -->
<g id="edge2" class="edge transition">
<title>IDLE&#45;&gt;IDLE</title>
<path fill="none" stroke="#000000" d="M212.0183,-776.8247C223.888,-777.1883 234,-775.5801 234,-772 234,-769.5387 229.2205,-768.0094 222.3762,-767.4121"/>
<polygon fill="#000000" stroke="#000000" points="222.0957,-763.9049 212.0183,-767.1753 221.9356,-770.903 222.0957,-763.9049"/>
<text text-anchor="start" x="234" y="-769" font-family="Helvetica,sans-Serif" font-size="10.00" fill="#000000">not (Din_rdy) &#160;&#160;</text>
</g>
<!-- RX_S -->
<g id="node3" class="node state regular">
<title>RX_S</title>
<polygon fill="#ffffff" fill-opacity="0.003922" stroke="transparent" stroke-width="2" points="210,-708 154,-708 154,-672 210,-672 210,-708"/>
<text text-anchor="start" x="166.3304" y="-686.2" font-family="Helvetica,sans-Serif" font-size="12.00" fill="#000000">RX_S</text>
<path fill="none" stroke="#000000" stroke-width="2" d="M166.3333,-673C166.3333,-673 197.6667,-673 197.6667,-673 203.3333,-673 209,-678.6667 209,-684.3333 209,-684.3333 209,-695.6667 209,-695.6667 209,-701.3333 203.3333,-707 197.6667,-707 197.6667,-707 166.3333,-707 166.3333,-707 160.6667,-707 155,-701.3333 155,-695.6667 155,-695.6667 155,-684.3333 155,-684.3333 155,-678.6667 160.6667,-673 166.3333,-673"/>
</g>
<!-- IDLE&#45;&gt;RX_S -->
<g id="edge1" class="edge transition">
<title>IDLE&#45;&gt;RX_S</title>
<path fill="none" stroke="#000000" d="M183.5561,-753.8015C183.3024,-743.3976 182.9786,-730.1215 182.6921,-718.3768"/>
<polygon fill="#000000" stroke="#000000" points="186.1855,-718.0592 182.4426,-708.1476 179.1876,-718.23 186.1855,-718.0592"/>
<text text-anchor="start" x="183" y="-728" font-family="Helvetica,sans-Serif" font-size="10.00" fill="#000000">Din_rdy &#160;&#160;</text>
</g>
<!-- STATUS -->
<g id="node4" class="node state regular">
<title>STATUS</title>
<polygon fill="#ffffff" fill-opacity="0.003922" stroke="transparent" stroke-width="2" points="103.5,-626 34.5,-626 34.5,-590 103.5,-590 103.5,-626"/>
<text text-anchor="start" x="45.8336" y="-604.2" font-family="Helvetica,sans-Serif" font-size="12.00" fill="#000000">STATUS</text>
<path fill="none" stroke="#000000" stroke-width="2" d="M46.8333,-591C46.8333,-591 91.1667,-591 91.1667,-591 96.8333,-591 102.5,-596.6667 102.5,-602.3333 102.5,-602.3333 102.5,-613.6667 102.5,-613.6667 102.5,-619.3333 96.8333,-625 91.1667,-625 91.1667,-625 46.8333,-625 46.8333,-625 41.1667,-625 35.5,-619.3333 35.5,-613.6667 35.5,-613.6667 35.5,-602.3333 35.5,-602.3333 35.5,-596.6667 41.1667,-591 46.8333,-591"/>
</g>
<!-- RX_S&#45;&gt;STATUS -->
<g id="edge3" class="edge transition">
<title>RX_S&#45;&gt;STATUS</title>
<path fill="none" stroke="#000000" d="M156.9216,-671.8015C140.829,-660.1237 119.7496,-644.8272 102.2652,-632.1393"/>
<polygon fill="#000000" stroke="#000000" points="104.1575,-629.1881 94.0083,-626.1476 100.0462,-634.8536 104.1575,-629.1881"/>
<text text-anchor="start" x="133" y="-646" font-family="Helvetica,sans-Serif" font-size="10.00" fill="#000000">status &#160;&#160;</text>
</g>
<!-- ERROR -->
<g id="node12" class="node state regular">
<title>ERROR</title>
<polygon fill="#ffffff" fill-opacity="0.003922" stroke="transparent" stroke-width="2" points="216.5,-134 151.5,-134 151.5,-98 216.5,-98 216.5,-134"/>
<text text-anchor="start" x="162.837" y="-112.2" font-family="Helvetica,sans-Serif" font-size="12.00" fill="#000000">ERROR</text>
<path fill="none" stroke="#000000" stroke-width="2" d="M163.8333,-99C163.8333,-99 204.1667,-99 204.1667,-99 209.8333,-99 215.5,-104.6667 215.5,-110.3333 215.5,-110.3333 215.5,-121.6667 215.5,-121.6667 215.5,-127.3333 209.8333,-133 204.1667,-133 204.1667,-133 163.8333,-133 163.8333,-133 158.1667,-133 152.5,-127.3333 152.5,-121.6667 152.5,-121.6667 152.5,-110.3333 152.5,-110.3333 152.5,-104.6667 158.1667,-99 163.8333,-99"/>
</g>
<!-- RX_S&#45;&gt;ERROR -->
<g id="edge4" class="edge transition">
<title>RX_S&#45;&gt;ERROR</title>
<path fill="none" stroke="#000000" d="M181.361,-671.6336C181.165,-664.56 181,-656.405 181,-649 181,-649 181,-649 181,-552.5 181,-482.0851 122.6997,-461.6287 150.653,-397 184.2704,-319.2758 276,-338.1828 276,-253.5 276,-253.5 276,-253.5 276,-157 276,-145.2427 250.6151,-134.5244 226.5138,-126.9977"/>
<polygon fill="#000000" stroke="#000000" points="227.2778,-123.5733 216.6948,-124.074 225.2801,-130.2823 227.2778,-123.5733"/>
<text text-anchor="start" x="150" y="-400" font-family="Helvetica,sans-Serif" font-size="10.00" fill="#000000">not (status) &#160;&#160;</text>
</g>
<!-- WAIT1 -->
<g id="node5" class="node state regular">
<title>WAIT1</title>
<polygon fill="#ffffff" fill-opacity="0.003922" stroke="transparent" stroke-width="2" points="74,-544 16,-544 16,-508 74,-508 74,-544"/>
<text text-anchor="start" x="26.667" y="-522.2" font-family="Helvetica,sans-Serif" font-size="12.00" fill="#000000">WAIT1</text>
<path fill="none" stroke="#000000" stroke-width="2" d="M28.3333,-509C28.3333,-509 61.6667,-509 61.6667,-509 67.3333,-509 73,-514.6667 73,-520.3333 73,-520.3333 73,-531.6667 73,-531.6667 73,-537.3333 67.3333,-543 61.6667,-543 61.6667,-543 28.3333,-543 28.3333,-543 22.6667,-543 17,-537.3333 17,-531.6667 17,-531.6667 17,-520.3333 17,-520.3333 17,-514.6667 22.6667,-509 28.3333,-509"/>
</g>
<!-- STATUS&#45;&gt;WAIT1 -->
<g id="edge5" class="edge transition">
<title>STATUS&#45;&gt;WAIT1</title>
<path fill="none" stroke="#000000" d="M63.6736,-589.8015C60.5975,-579.2915 56.6635,-565.8503 53.2003,-554.0177"/>
<polygon fill="#000000" stroke="#000000" points="56.4796,-552.7618 50.3115,-544.1476 49.7615,-554.7281 56.4796,-552.7618"/>
<text text-anchor="middle" x="59.3895" y="-564" font-family="Helvetica,sans-Serif" font-size="10.00" fill="#000000"> </text>
</g>
<!-- WAIT1&#45;&gt;WAIT1 -->
<g id="edge7" class="edge transition">
<title>WAIT1&#45;&gt;WAIT1</title>
<path fill="none" stroke="#000000" d="M74.0927,-530.839C85.9763,-531.1423 96,-529.5293 96,-526 96,-523.5736 91.2622,-522.053 84.4395,-521.4381"/>
<polygon fill="#000000" stroke="#000000" points="84.1828,-517.93 74.0927,-521.161 83.9954,-524.9275 84.1828,-517.93"/>
<text text-anchor="start" x="96" y="-523" font-family="Helvetica,sans-Serif" font-size="10.00" fill="#000000">not (Din_rdy) &#160;&#160;</text>
</g>
<!-- RX_D1 -->
<g id="node6" class="node state regular">
<title>RX_D1</title>
<polygon fill="#ffffff" fill-opacity="0.003922" stroke="transparent" stroke-width="2" points="76,-462 16,-462 16,-426 76,-426 76,-462"/>
<text text-anchor="start" x="26.665" y="-440.2" font-family="Helvetica,sans-Serif" font-size="12.00" fill="#000000">RX_D1</text>
<path fill="none" stroke="#000000" stroke-width="2" d="M28.3333,-427C28.3333,-427 63.6667,-427 63.6667,-427 69.3333,-427 75,-432.6667 75,-438.3333 75,-438.3333 75,-449.6667 75,-449.6667 75,-455.3333 69.3333,-461 63.6667,-461 63.6667,-461 28.3333,-461 28.3333,-461 22.6667,-461 17,-455.3333 17,-449.6667 17,-449.6667 17,-438.3333 17,-438.3333 17,-432.6667 22.6667,-427 28.3333,-427"/>
</g>
<!-- WAIT1&#45;&gt;RX_D1 -->
<g id="edge6" class="edge transition">
<title>WAIT1&#45;&gt;RX_D1</title>
<path fill="none" stroke="#000000" d="M45.2219,-507.8015C45.3488,-497.3976 45.5107,-484.1215 45.6539,-472.3768"/>
<polygon fill="#000000" stroke="#000000" points="49.1564,-472.1896 45.7787,-462.1476 42.1569,-472.1041 49.1564,-472.1896"/>
<text text-anchor="start" x="45" y="-482" font-family="Helvetica,sans-Serif" font-size="10.00" fill="#000000">Din_rdy &#160;&#160;</text>
</g>
<!-- D1 -->
<g id="node7" class="node state regular">
<title>D1</title>
<polygon fill="#ffffff" fill-opacity="0.003922" stroke="transparent" stroke-width="2" points="73,-380 17,-380 17,-344 73,-344 73,-380"/>
<text text-anchor="start" x="37.3332" y="-358.2" font-family="Helvetica,sans-Serif" font-size="12.00" fill="#000000">D1</text>
<path fill="none" stroke="#000000" stroke-width="2" d="M29.3333,-345C29.3333,-345 60.6667,-345 60.6667,-345 66.3333,-345 72,-350.6667 72,-356.3333 72,-356.3333 72,-367.6667 72,-367.6667 72,-373.3333 66.3333,-379 60.6667,-379 60.6667,-379 29.3333,-379 29.3333,-379 23.6667,-379 18,-373.3333 18,-367.6667 18,-367.6667 18,-356.3333 18,-356.3333 18,-350.6667 23.6667,-345 29.3333,-345"/>
</g>
<!-- RX_D1&#45;&gt;D1 -->
<g id="edge8" class="edge transition">
<title>RX_D1&#45;&gt;D1</title>
<path fill="none" stroke="#000000" d="M45.7781,-425.8015C45.6512,-415.3976 45.4893,-402.1215 45.3461,-390.3768"/>
<polygon fill="#000000" stroke="#000000" points="48.8431,-390.1041 45.2213,-380.1476 41.8436,-390.1896 48.8431,-390.1041"/>
<text text-anchor="start" x="45" y="-400" font-family="Helvetica,sans-Serif" font-size="10.00" fill="#000000">data &#160;&#160;</text>
</g>
<!-- RX_D1&#45;&gt;ERROR -->
<g id="edge9" class="edge transition">
<title>RX_D1&#45;&gt;ERROR</title>
<path fill="none" stroke="#000000" d="M66.0749,-425.9066C108.208,-387.0933 202,-295.9266 202,-253.5 202,-253.5 202,-253.5 202,-157 202,-152.4159 201.0449,-147.7682 199.5748,-143.3294"/>
<polygon fill="#000000" stroke="#000000" points="202.7848,-141.9335 195.7045,-134.0519 196.3244,-144.6286 202.7848,-141.9335"/>
<text text-anchor="start" x="200" y="-277" font-family="Helvetica,sans-Serif" font-size="10.00" fill="#000000">not (data) &#160;&#160;</text>
</g>
<!-- WAIT2 -->
<g id="node8" class="node state regular">
<title>WAIT2</title>
<polygon fill="#ffffff" fill-opacity="0.003922" stroke="transparent" stroke-width="2" points="74,-298 16,-298 16,-262 74,-262 74,-298"/>
<text text-anchor="start" x="26.667" y="-276.2" font-family="Helvetica,sans-Serif" font-size="12.00" fill="#000000">WAIT2</text>
<path fill="none" stroke="#000000" stroke-width="2" d="M28.3333,-263C28.3333,-263 61.6667,-263 61.6667,-263 67.3333,-263 73,-268.6667 73,-274.3333 73,-274.3333 73,-285.6667 73,-285.6667 73,-291.3333 67.3333,-297 61.6667,-297 61.6667,-297 28.3333,-297 28.3333,-297 22.6667,-297 17,-291.3333 17,-285.6667 17,-285.6667 17,-274.3333 17,-274.3333 17,-268.6667 22.6667,-263 28.3333,-263"/>
</g>
<!-- D1&#45;&gt;WAIT2 -->
<g id="edge10" class="edge transition">
<title>D1&#45;&gt;WAIT2</title>
<path fill="none" stroke="#000000" d="M45,-343.8015C45,-333.3976 45,-320.1215 45,-308.3768"/>
<polygon fill="#000000" stroke="#000000" points="48.5001,-308.1476 45,-298.1476 41.5001,-308.1476 48.5001,-308.1476"/>
<text text-anchor="middle" x="46.3895" y="-318" font-family="Helvetica,sans-Serif" font-size="10.00" fill="#000000"> </text>
</g>
<!-- WAIT2&#45;&gt;WAIT2 -->
<g id="edge12" class="edge transition">
<title>WAIT2&#45;&gt;WAIT2</title>
<path fill="none" stroke="#000000" d="M74.0927,-284.839C85.9763,-285.1423 96,-283.5293 96,-280 96,-277.5736 91.2622,-276.053 84.4395,-275.4381"/>
<polygon fill="#000000" stroke="#000000" points="84.1828,-271.93 74.0927,-275.161 83.9954,-278.9275 84.1828,-271.93"/>
<text text-anchor="start" x="96" y="-277" font-family="Helvetica,sans-Serif" font-size="10.00" fill="#000000">not (Din_rdy) &#160;&#160;</text>
</g>
<!-- RX_D2 -->
<g id="node9" class="node state regular">
<title>RX_D2</title>
<polygon fill="#ffffff" fill-opacity="0.003922" stroke="transparent" stroke-width="2" points="86,-216 26,-216 26,-180 86,-180 86,-216"/>
<text text-anchor="start" x="36.665" y="-194.2" font-family="Helvetica,sans-Serif" font-size="12.00" fill="#000000">RX_D2</text>
<path fill="none" stroke="#000000" stroke-width="2" d="M38.3333,-181C38.3333,-181 73.6667,-181 73.6667,-181 79.3333,-181 85,-186.6667 85,-192.3333 85,-192.3333 85,-203.6667 85,-203.6667 85,-209.3333 79.3333,-215 73.6667,-215 73.6667,-215 38.3333,-215 38.3333,-215 32.6667,-215 27,-209.3333 27,-203.6667 27,-203.6667 27,-192.3333 27,-192.3333 27,-186.6667 32.6667,-181 38.3333,-181"/>
</g>
<!-- WAIT2&#45;&gt;RX_D2 -->
<g id="edge11" class="edge transition">
<title>WAIT2&#45;&gt;RX_D2</title>
<path fill="none" stroke="#000000" d="M47.4413,-261.8015C48.8369,-251.3976 50.6178,-238.1215 52.1934,-226.3768"/>
<polygon fill="#000000" stroke="#000000" points="55.7049,-226.5242 53.5656,-216.1476 48.767,-225.5934 55.7049,-226.5242"/>
<text text-anchor="start" x="51" y="-236" font-family="Helvetica,sans-Serif" font-size="10.00" fill="#000000">Din_rdy &#160;&#160;</text>
</g>
<!-- D2 -->
<g id="node10" class="node state regular">
<title>D2</title>
<polygon fill="#ffffff" fill-opacity="0.003922" stroke="transparent" stroke-width="2" points="106,-134 50,-134 50,-98 106,-98 106,-134"/>
<text text-anchor="start" x="70.3332" y="-112.2" font-family="Helvetica,sans-Serif" font-size="12.00" fill="#000000">D2</text>
<path fill="none" stroke="#000000" stroke-width="2" d="M62.3333,-99C62.3333,-99 93.6667,-99 93.6667,-99 99.3333,-99 105,-104.6667 105,-110.3333 105,-110.3333 105,-121.6667 105,-121.6667 105,-127.3333 99.3333,-133 93.6667,-133 93.6667,-133 62.3333,-133 62.3333,-133 56.6667,-133 51,-127.3333 51,-121.6667 51,-121.6667 51,-110.3333 51,-110.3333 51,-104.6667 56.6667,-99 62.3333,-99"/>
</g>
<!-- RX_D2&#45;&gt;D2 -->
<g id="edge13" class="edge transition">
<title>RX_D2&#45;&gt;D2</title>
<path fill="none" stroke="#000000" d="M60.8825,-179.8015C63.7023,-169.2915 67.3085,-155.8503 70.4831,-144.0177"/>
<polygon fill="#000000" stroke="#000000" points="73.9202,-144.713 73.1311,-134.1476 67.1593,-142.899 73.9202,-144.713"/>
<text text-anchor="start" x="68" y="-154" font-family="Helvetica,sans-Serif" font-size="10.00" fill="#000000">data &#160;&#160;</text>
</g>
<!-- RX_D2&#45;&gt;ERROR -->
<g id="edge14" class="edge transition">
<title>RX_D2&#45;&gt;ERROR</title>
<path fill="none" stroke="#000000" d="M84.4073,-179.8015C102.8848,-167.9644 127.166,-152.4093 147.127,-139.6217"/>
<polygon fill="#000000" stroke="#000000" points="149.1397,-142.489 155.6721,-134.1476 145.3637,-136.5948 149.1397,-142.489"/>
<text text-anchor="start" x="128" y="-154" font-family="Helvetica,sans-Serif" font-size="10.00" fill="#000000">not (data) &#160;&#160;</text>
</g>
<!-- FIN -->
<g id="node11" class="node state regular">
<title>FIN</title>
<polygon fill="#ffffff" fill-opacity="0.003922" stroke="transparent" stroke-width="2" points="287,-52 231,-52 231,-16 287,-16 287,-52"/>
<text text-anchor="start" x="249.3358" y="-30.2" font-family="Helvetica,sans-Serif" font-size="12.00" fill="#000000">FIN</text>
<path fill="none" stroke="#000000" stroke-width="2" d="M243.3333,-17C243.3333,-17 274.6667,-17 274.6667,-17 280.3333,-17 286,-22.6667 286,-28.3333 286,-28.3333 286,-39.6667 286,-39.6667 286,-45.3333 280.3333,-51 274.6667,-51 274.6667,-51 243.3333,-51 243.3333,-51 237.6667,-51 232,-45.3333 232,-39.6667 232,-39.6667 232,-28.3333 232,-28.3333 232,-22.6667 237.6667,-17 243.3333,-17"/>
</g>
<!-- D2&#45;&gt;FIN -->
<g id="edge15" class="edge transition">
<title>D2&#45;&gt;FIN</title>
<path fill="none" stroke="#000000" d="M106.2813,-103.1875C137.3628,-89.1063 187.4218,-66.4277 221.6973,-50.8996"/>
<polygon fill="#000000" stroke="#000000" points="223.2529,-54.0373 230.9173,-46.7225 220.3642,-47.6611 223.2529,-54.0373"/>
<text text-anchor="middle" x="181.3895" y="-72" font-family="Helvetica,sans-Serif" font-size="10.00" fill="#000000"> </text>
</g>
<!-- FIN&#45;&gt;IDLE -->
<g id="edge16" class="edge transition">
<title>FIN&#45;&gt;IDLE</title>
<path fill="none" stroke="#000000" d="M287.3209,-40.2427C304.837,-45.9608 324,-56.4545 324,-75 324,-253.5 324,-253.5 324,-253.5 324,-283.5033 323,-290.9967 323,-321 323,-731 323,-731 323,-731 323,-752.1067 263.2935,-763.1582 222.1432,-768.2685"/>
<polygon fill="#000000" stroke="#000000" points="221.6533,-764.8019 212.1287,-769.4423 222.4682,-771.7543 221.6533,-764.8019"/>
<text text-anchor="middle" x="324.3895" y="-400" font-family="Helvetica,sans-Serif" font-size="10.00" fill="#000000"> </text>
</g>
<!-- ERROR&#45;&gt;RX_S -->
<g id="edge17" class="edge transition">
<title>ERROR&#45;&gt;RX_S</title>
<path fill="none" stroke="#000000" d="M216.6212,-121.0096C250.9311,-127.2231 300,-139.218 300,-157 300,-253.5 300,-253.5 300,-253.5 300,-331.7424 236,-339.2576 236,-417.5 236,-649 236,-649 236,-649 236,-660.2892 228.4211,-668.8741 218.9419,-675.1965"/>
<polygon fill="#000000" stroke="#000000" points="217.1926,-672.165 210.2652,-680.1813 220.6797,-678.2346 217.1926,-672.165"/>
<text text-anchor="start" x="237" y="-400" font-family="Helvetica,sans-Serif" font-size="10.00" fill="#000000">Din_rdy &#160;&#160;</text>
</g>
<!-- ERROR&#45;&gt;ERROR -->
<g id="edge18" class="edge transition">
<title>ERROR&#45;&gt;ERROR</title>
<path fill="none" stroke="#000000" d="M216.7219,-120.8676C228.6932,-120.9995 238.5,-119.377 238.5,-116 238.5,-113.6783 233.8647,-112.1859 227.0776,-111.5228"/>
<polygon fill="#000000" stroke="#000000" points="226.8467,-108.0117 216.7219,-111.1324 226.583,-115.0067 226.8467,-108.0117"/>
<text text-anchor="start" x="238.5" y="-113" font-family="Helvetica,sans-Serif" font-size="10.00" fill="#000000">not (Din_rdy) &#160;&#160;</text>
</g>
</g>
</svg>
